# xmcd CD database file
#
# Track frame offsets:
#	150
#	12788
#	25681
#
# Disc length: 642 seconds
#
# Revision: 0
# Processed by: cddbd v1.4PL0 Copyright (c) Steve Scherf et al.
# Submitted via: CDex 1.50Beta7
#
DISCID=13028003
DTITLE=Anne Sofie von Otter and Elvis Costello - Von Otter meets Elvis Costello
DYEAR=1900
DGENRE=Jazz
TTITLE0=For the stars
TTITLE1=Go Leave
TTITLE2=Like an Angel Passing through my room
EXTD=
EXTT0=
EXTT1=
EXTT2=
PLAYORDER=
